# xmcd
#
# Track frame offsets:
#	150
#	16683
#	35734
#	53937
#	73022
#	88545
#	105647
#	121112
#	139235
#	157206
#	174135
#	188321
#	205344
#
# Disc length: 2961 seconds
#
# Revision: 0
# Processed by: cddbd v1.5.1PL0 Copyright (c) Steve Scherf et al.
# Submitted via: dBpowerAMP V4.0
#
DISCID=a80b8f0d
DTITLE=DANIEL DIAL - O SONHO
DYEAR=2003
DGENRE=FORRÓ
TTITLE0=resumo
TTITLE1=o sonho
TTITLE2=noticias de voce
TTITLE3=brilhante azul
TTITLE4=mais uma chance
TTITLE5=telefone
TTITLE6=um sonhador
TTITLE7=amor demais
TTITLE8=recomeço
TTITLE9=amar voce
TTITLE10=ela e tudo
TTITLE11=ausencia
TTITLE12=amor sem fim
EXTD=
EXTT0=
EXTT1=
EXTT2=
EXTT3=
EXTT4=
EXTT5=
EXTT6=
EXTT7=
EXTT8=
EXTT9=
EXTT10=
EXTT11=
EXTT12=
PLAYORDER=
